<?xml version="1.0" encoding="utf-8"?>
<!-- Generator: $$$/GeneralStr/196=Adobe Illustrator 27.6.0, SVG Export Plug-In . SVG Version: 6.00 Build 0)  -->
<svg version="1.1" xmlns="http://www.w3.org/2000/svg" xmlns:xlink="http://www.w3.org/1999/xlink" x="0px" y="0px"
	 viewBox="0 0 725.6 235.5" style="enable-background:new 0 0 725.6 235.5;" xml:space="preserve">
<style type="text/css">
	.st0{fill:#EA615E;}
	.st1{fill:none;}
	.st2{font-family:'HelveticaNeueLTStd-Lt';}
	.st3{font-size:32.5011px;}
	.st4{fill:#76BB60;}
	.st5{fill:#4ABDCB;}
</style>
<g id="Ebene_1">
</g>
<g id="Ebene_3">
</g>
<g id="Ebene_4">
</g>
<g id="Ebene_5">
	<path class="st0" d="M238.3,75.61c11.13,0,20.19,9.05,20.19,20.19s-9.06,20.19-20.19,20.19c-11.13,0-20.19-9.05-20.19-20.19
		S227.17,75.61,238.3,75.61 M238.3,63.86c-17.63,0-31.93,14.3-31.93,31.93s14.3,31.93,31.93,31.93c17.63,0,31.93-14.3,31.93-31.93
		S255.93,63.86,238.3,63.86L238.3,63.86z"/>
	<rect x="302.58" y="147.9" class="st1" width="399.77" height="53.44"/>
	<text transform="matrix(1 0 0 1 302.5793 171.1036)" class="st2 st3">we empower life sciences</text>
	<g>
		<path d="M386.45,127.57c-3.39,0-6.63-0.53-9.7-1.59c-3.08-1.06-5.76-2.54-8.04-4.45c-2.28-1.91-3.95-4.11-5.01-6.6
			c-0.53-1.12-0.51-2.15,0.04-3.1c0.56-0.96,1.5-1.56,2.83-1.83c0.95-0.21,1.89-0.07,2.83,0.44c0.92,0.5,1.63,1.26,2.11,2.27
			c0.64,1.33,1.68,2.54,3.14,3.66c1.46,1.11,3.22,2.01,5.29,2.7c2.07,0.69,4.24,1.03,6.52,1.03c2.54,0,4.89-0.4,7.04-1.19
			c2.15-0.8,3.88-1.95,5.21-3.46c1.32-1.51,1.99-3.38,1.99-5.61c0-2.81-1.1-5.33-3.3-7.55c-2.2-2.23-5.82-3.61-10.86-4.14
			c-6.57-0.64-11.74-2.57-15.5-5.81c-3.77-3.23-5.65-7.24-5.65-12.01c0-3.5,0.98-6.47,2.94-8.91c1.96-2.44,4.63-4.3,7.99-5.57
			c3.36-1.27,7.12-1.91,11.26-1.91c3.23,0,6.06,0.45,8.47,1.35c2.42,0.9,4.52,2.15,6.32,3.74c1.8,1.59,3.36,3.48,4.69,5.65
			c0.74,1.17,1.04,2.27,0.91,3.3c-0.14,1.03-0.65,1.84-1.55,2.43c-1,0.64-2.09,0.77-3.26,0.4c-1.17-0.37-2.04-1.06-2.63-2.07
			c-0.84-1.54-1.88-2.83-3.1-3.9c-1.22-1.06-2.65-1.89-4.3-2.5c-1.64-0.61-3.58-0.91-5.81-0.91c-3.92-0.05-7.21,0.67-9.86,2.18
			c-2.65,1.51-3.97,3.83-3.97,6.96c0,1.59,0.41,3.12,1.23,4.57c0.82,1.46,2.33,2.72,4.53,3.78c2.19,1.06,5.37,1.81,9.5,2.23
			c6.31,0.64,11.22,2.56,14.75,5.77c3.53,3.21,5.29,7.44,5.29,12.68c0,3.02-0.62,5.65-1.87,7.87c-1.25,2.23-2.92,4.1-5.01,5.61
			c-2.1,1.51-4.48,2.64-7.16,3.38C392.09,127.19,389.32,127.57,386.45,127.57z"/>
		<path d="M450.16,127.57c-4.67,0-8.94-0.78-12.81-2.34c-3.87-1.57-7.2-3.77-9.98-6.6c-2.79-2.84-4.95-6.2-6.49-10.1
			c-1.53-3.9-2.31-8.18-2.31-12.84s0.77-8.94,2.31-12.81c1.54-3.87,3.7-7.22,6.49-10.06c2.78-2.83,6.11-5.03,9.98-6.6
			c3.87-1.56,8.14-2.35,12.81-2.35c4.66,0,8.92,0.79,12.76,2.35c3.84,1.56,7.17,3.76,9.98,6.6c2.81,2.84,4.98,6.19,6.52,10.06
			c1.54,3.87,2.31,8.14,2.31,12.81s-0.77,8.95-2.31,12.84c-1.54,3.9-3.71,7.26-6.52,10.1c-2.82,2.83-6.14,5.03-9.98,6.6
			C459.08,126.78,454.82,127.57,450.16,127.57z M450.16,120.09c3.45,0,6.61-0.63,9.5-1.87c2.88-1.25,5.39-2.97,7.51-5.17
			c2.12-2.2,3.75-4.79,4.89-7.76c1.14-2.97,1.71-6.17,1.71-9.62c0-3.45-0.57-6.66-1.71-9.63c-1.15-2.97-2.78-5.55-4.89-7.75
			c-2.13-2.2-4.63-3.91-7.51-5.13c-2.89-1.22-6.06-1.83-9.5-1.83c-3.45,0-6.62,0.61-9.5,1.83c-2.89,1.22-5.38,2.93-7.48,5.13
			c-2.1,2.2-3.73,4.79-4.89,7.75c-1.17,2.97-1.75,6.18-1.75,9.63c0,3.45,0.58,6.66,1.75,9.62c1.16,2.97,2.8,5.56,4.89,7.76
			c2.09,2.2,4.58,3.92,7.48,5.17C443.54,119.46,446.71,120.09,450.16,120.09z M471.87,125.5l-16.62-16.62
			c-0.84-0.85-1.27-1.79-1.27-2.83c0-1.03,0.43-1.98,1.27-2.83c0.84-0.84,1.79-1.27,2.83-1.27c1.03,0,1.97,0.43,2.83,1.27
			l16.62,16.7c0.8,0.85,1.2,1.78,1.23,2.78c0.02,1.01-0.39,1.94-1.23,2.79c-0.85,0.85-1.79,1.27-2.83,1.27
			S472.72,126.35,471.87,125.5z"/>
		<path d="M325.02,127.72c-12.98,0-30.98-10.77-30.98-30.98c0-22.33,15.79-32.51,30.45-32.51c15.83,0,27.78,11.72,27.78,27.27
			l0,1.02c0.01,2.19,0.03,4.09-1.54,5.66c-1.53,1.55-3.48,1.55-4.77,1.55H302.4c1.7,13.95,15.18,19.8,22.63,19.8
			c7.2,0,12.88-1.77,17.88-5.58c1.8-1.37,4.36-1.01,5.73,0.78c1.36,1.8,1.02,4.36-0.78,5.73
			C341.45,125.35,333.98,127.72,325.02,127.72z M302.58,91.57l41.52-0.06c0-10.89-8.43-19.1-19.61-19.1
			C315.27,72.41,304.66,77.54,302.58,91.57z"/>
		<g>
			<path d="M508.38,126.83c-2,0-3.76-0.55-5.31-1.65s-2.75-2.62-3.61-4.56c-0.86-1.94-1.3-4.19-1.3-6.76V67.83
				c0-0.74,0.22-1.31,0.67-1.73c0.44-0.42,1-0.63,1.69-0.63c0.73,0,1.3,0.21,1.73,0.63c0.42,0.42,0.63,1,0.63,1.73v46.04
				c0,2.41,0.51,4.39,1.53,5.93c1.02,1.55,2.35,2.32,3.97,2.32h1.96c0.58,0,1.05,0.21,1.41,0.63c0.36,0.42,0.55,1,0.55,1.73
				c0,0.68-0.21,1.25-0.63,1.69c-0.42,0.44-1,0.67-1.73,0.67H508.38z"/>
			<path d="M540.82,127.31c-4.19,0-7.95-0.96-11.27-2.87c-3.33-1.91-5.95-4.53-7.86-7.86c-1.91-3.33-2.87-7.05-2.87-11.2
				c0-4.19,0.96-7.95,2.87-11.27c1.91-3.33,4.53-5.95,7.86-7.86c3.33-1.91,7.08-2.86,11.27-2.86c4.19,0,7.94,0.95,11.23,2.86
				s5.91,4.53,7.82,7.86c1.91,3.33,2.86,7.08,2.86,11.27l-1.96,3.15c0,3.56-0.88,6.76-2.63,9.59c-1.75,2.83-4.12,5.07-7.11,6.72
				C548.04,126.48,544.64,127.31,540.82,127.31z M540.82,122.91c3.3,0,6.25-0.77,8.84-2.32c2.6-1.54,4.64-3.64,6.13-6.29
				c1.49-2.65,2.24-5.62,2.24-8.92c0-3.35-0.75-6.35-2.24-9c-1.5-2.64-3.54-4.74-6.13-6.29c-2.59-1.54-5.54-2.31-8.84-2.31
				c-3.25,0-6.18,0.77-8.8,2.31c-2.62,1.55-4.69,3.64-6.21,6.29c-1.52,2.65-2.28,5.65-2.28,9c0,3.3,0.75,6.27,2.28,8.92
				c1.52,2.65,3.59,4.74,6.21,6.29C534.64,122.13,537.57,122.91,540.82,122.91z M560.39,126.83c-0.68,0-1.25-0.22-1.69-0.67
				c-0.44-0.45-0.66-1.01-0.66-1.69V110.1l1.49-4.72h3.22v19.09c0,0.68-0.21,1.25-0.63,1.69
				C561.69,126.61,561.11,126.83,560.39,126.83z"/>
			<path d="M596.44,127.31c-4.09,0-7.78-0.95-11.08-2.83c-3.3-1.89-5.91-4.45-7.82-7.7c-1.91-3.25-2.92-6.91-3.02-11V67.83
				c0-0.74,0.22-1.31,0.66-1.73c0.45-0.42,1.01-0.63,1.69-0.63c0.73,0,1.3,0.21,1.73,0.63c0.42,0.42,0.63,1,0.63,1.73v24.52
				c1.68-2.72,4.02-4.9,7.03-6.52c3.01-1.62,6.4-2.44,10.17-2.44c4.19,0,7.95,0.95,11.28,2.86c3.33,1.91,5.94,4.52,7.85,7.82
				c1.91,3.3,2.87,7.05,2.87,11.23c0,4.19-0.96,7.95-2.87,11.27c-1.91,3.33-4.53,5.95-7.85,7.86
				C604.39,126.35,600.64,127.31,596.44,127.31z M596.44,122.91c3.3,0,6.25-0.77,8.84-2.32c2.59-1.54,4.65-3.64,6.16-6.29
				c1.52-2.65,2.28-5.65,2.28-9c0-3.35-0.76-6.34-2.28-8.96c-1.52-2.62-3.57-4.7-6.16-6.25c-2.6-1.54-5.54-2.31-8.84-2.31
				c-3.25,0-6.18,0.77-8.8,2.31c-2.62,1.55-4.67,3.63-6.17,6.25c-1.49,2.62-2.24,5.61-2.24,8.96c0,3.35,0.75,6.35,2.24,9
				c1.5,2.65,3.55,4.74,6.17,6.29C590.27,122.13,593.2,122.91,596.44,122.91z"/>
			<path d="M644.84,127.31c-2.72,0-5.58-0.5-8.56-1.5c-2.99-0.99-5.47-2.67-7.46-5.03c-0.42-0.52-0.59-1.09-0.51-1.69
				s0.4-1.11,0.98-1.53c0.52-0.36,1.09-0.5,1.69-0.39c0.6,0.1,1.09,0.39,1.45,0.86c1.52,1.78,3.36,3.02,5.54,3.73
				c2.17,0.71,4.55,1.06,7.11,1.06c4.4,0,7.52-0.79,9.35-2.35c1.83-1.57,2.75-3.41,2.75-5.5c0-2.05-0.98-3.73-2.95-5.07
				c-1.96-1.34-4.99-2.29-9.07-2.87c-5.24-0.73-9.12-2.14-11.63-4.24c-2.51-2.1-3.77-4.53-3.77-7.31c0-2.62,0.66-4.83,1.96-6.64
				c1.31-1.81,3.11-3.17,5.38-4.09c2.28-0.91,4.89-1.37,7.82-1.37c3.56,0,6.57,0.64,9.04,1.92c2.46,1.29,4.45,3,5.97,5.15
				c0.42,0.52,0.56,1.09,0.43,1.69c-0.13,0.6-0.54,1.09-1.21,1.45c-0.52,0.26-1.07,0.35-1.65,0.24c-0.58-0.1-1.07-0.42-1.5-0.94
				c-1.3-1.68-2.89-2.95-4.75-3.81c-1.86-0.87-4.02-1.3-6.48-1.3c-3.3,0-5.86,0.7-7.7,2.12c-1.84,1.41-2.75,3.11-2.75,5.1
				c0,1.36,0.38,2.56,1.14,3.57c0.76,1.02,2,1.89,3.73,2.6c1.73,0.71,4.03,1.27,6.91,1.69c3.93,0.52,7.03,1.41,9.31,2.67
				c2.28,1.26,3.9,2.71,4.87,4.36s1.45,3.41,1.45,5.3c0,2.47-0.78,4.61-2.35,6.45c-1.57,1.84-3.64,3.24-6.21,4.2
				C650.61,126.82,647.83,127.31,644.84,127.31z"/>
		</g>
	</g>
	<path class="st4" d="M167.05,73.09c12.52,0,22.7,10.18,22.7,22.7s-10.18,22.7-22.7,22.7c-12.52,0-22.7-10.18-22.7-22.7
		S154.53,73.09,167.05,73.09 M167.05,63.86c-17.63,0-31.93,14.3-31.93,31.93s14.3,31.93,31.93,31.93s31.93-14.3,31.93-31.93
		S184.68,63.86,167.05,63.86L167.05,63.86z"/>
	<path class="st5" d="M95.79,70.15c14.14,0,25.64,11.5,25.64,25.64s-11.5,25.64-25.64,25.64s-25.64-11.5-25.64-25.64
		S81.65,70.15,95.79,70.15 M95.79,63.86c-17.63,0-31.93,14.3-31.93,31.93s14.3,31.93,31.93,31.93s31.93-14.3,31.93-31.93
		S113.43,63.86,95.79,63.86L95.79,63.86z"/>
</g>
</svg>
